<svg width="312" height="331" viewBox="0 0 312 331" fill="none" xmlns="http://www.w3.org/2000/svg">
<path d="M51.4896 112.585L51.5001 112.579L107.281 80.3721C112.54 77.3354 119.02 77.3351 124.28 80.3714L164.808 103.767C170.808 107.231 170.809 115.891 164.808 119.356L70.5198 173.792C67.4259 175.578 65.52 178.879 65.5197 182.452L65.5116 291.316C65.511 298.244 58.0108 302.574 52.0111 299.109L11.4991 275.716C6.23979 272.679 3 267.068 3 260.994V196.581C3 181.775 3.00299 170.934 3.76936 162.451C4.53206 154.008 6.03136 148.204 8.84117 143.394C11.6504 138.585 15.9359 134.484 22.798 129.75C29.2505 125.299 37.7441 120.443 49.0893 113.957C49.8756 113.508 50.6756 113.05 51.4896 112.585ZM147.556 305.784L147.546 305.778L91.7639 273.574C86.5042 270.537 83.2639 264.925 83.2636 258.852L83.2606 212.056C83.2601 205.128 90.7604 200.797 96.7607 204.261L191.048 258.7C194.142 260.486 197.954 260.486 201.048 258.7L295.331 204.275C301.331 200.811 308.831 205.142 308.831 212.07L308.828 258.851C308.827 264.924 305.587 270.536 300.328 273.572L244.544 305.779C231.722 313.182 222.332 318.6 214.602 322.178C206.908 325.739 201.133 327.342 195.562 327.314C189.992 327.286 184.298 325.625 176.768 322.049C169.687 318.686 161.235 313.759 149.946 307.177C149.163 306.72 148.367 306.256 147.556 305.784ZM269.196 122.349V122.361L269.198 186.772C269.198 192.845 265.958 198.457 260.699 201.494L220.174 224.895C214.174 228.359 206.673 224.029 206.673 217.101L206.674 108.226C206.674 104.654 204.768 101.353 201.675 99.5662L107.399 45.1269C101.4 41.6624 101.4 33.0022 107.4 29.5385L147.915 6.15057C153.175 3.11434 159.655 3.11453 164.914 6.1511L220.698 38.358C233.521 45.7609 242.907 51.1839 249.871 56.0893C256.802 60.9714 261.078 65.1716 263.839 70.01C266.599 74.8476 268.008 80.6093 268.676 88.9188C269.305 96.7322 269.263 106.516 269.208 119.583C269.204 120.489 269.2 121.411 269.196 122.349Z" fill="white" stroke="white" stroke-width="6"/>
</svg>
