<svg width="312" height="330" viewBox="0 0 312 330" fill="none" xmlns="http://www.w3.org/2000/svg">
<path d="M51.4896 111.711L51.5001 111.705L107.281 79.4986C112.54 76.4619 119.02 76.4616 124.28 79.4979L164.808 102.893C170.808 106.357 170.809 115.018 164.808 118.482L70.5198 172.918C67.4259 174.705 65.52 178.006 65.5197 181.578L65.5116 290.443C65.511 297.371 58.0108 301.7 52.0111 298.236L11.4991 274.843C6.23979 271.806 3 266.194 3 260.121V195.707C3 180.901 3.00299 170.061 3.76936 161.577C4.53206 153.134 6.03136 147.331 8.84117 142.52C11.6504 137.711 15.9359 133.61 22.798 128.877C29.2505 124.426 37.7441 119.57 49.0893 113.084C49.8756 112.634 50.6756 112.177 51.4896 111.711ZM147.556 304.91L147.546 304.904L91.7639 272.7C86.5042 269.664 83.2639 264.052 83.2636 257.979L83.2606 211.183C83.2601 204.254 90.7604 199.924 96.7607 203.388L191.048 257.826C194.142 259.612 197.954 259.612 201.048 257.826L295.331 203.401C301.331 199.938 308.831 204.268 308.831 211.196L308.828 257.977C308.827 264.05 305.587 269.662 300.328 272.699L244.544 304.906C231.722 312.308 222.332 317.726 214.602 321.304C206.908 324.865 201.133 326.469 195.562 326.44C189.992 326.412 184.298 324.751 176.768 321.175C169.687 317.813 161.235 312.885 149.946 306.303C149.163 305.847 148.367 305.383 147.556 304.91ZM269.196 121.476V121.488L269.198 185.898C269.198 191.972 265.958 197.584 260.699 200.621L220.174 224.021C214.174 227.486 206.673 223.156 206.673 216.227L206.674 107.353C206.674 103.78 204.768 100.479 201.675 98.6927L107.399 44.2534C101.4 40.7888 101.4 32.1287 107.4 28.6649L147.915 5.27704C153.175 2.2408 159.655 2.241 164.914 5.27756L220.698 37.4845C233.521 44.8873 242.907 50.3103 249.871 55.2158C256.802 60.0978 261.078 64.298 263.839 69.1365C266.599 73.974 268.008 79.7358 268.676 88.0453C269.305 95.8587 269.263 105.642 269.208 118.71C269.204 119.616 269.2 120.538 269.196 121.476Z" stroke="white" stroke-width="6"/>
</svg>
